<svg width="12" height="10" viewBox="0 0 12 10" fill="none" xmlns="http://www.w3.org/2000/svg">
<path fill-rule="evenodd" clip-rule="evenodd" d="M11.909 1.66545H11.4418C11.2684 1.66545 11.0225 1.91874 11.0225 2.08093V7.95077C11.0225 8.11296 11.2684 8.33381 11.4418 8.33381H11.909V9.72725H7.67388V8.33381H8.56038V2.16306H8.51735L6.44726 9.72725H4.845L2.80154 2.16306H2.74964V8.33381H3.63614V9.72725H0.0908203V8.33381H0.544998C0.732133 8.33381 0.977321 8.11296 0.977321 7.95077V2.08093C0.977321 1.91874 0.732133 1.66545 0.544998 1.66545H0.0908203V0.272705H4.524L5.9801 5.74639H6.01972L7.48879 0.272705H11.909V1.66545Z" fill="white"/>
</svg>
