<?xml version="1.0" encoding="UTF-8"?>
<svg width="132px" height="32px" viewBox="0 0 132 32" version="1.1" xmlns="http://www.w3.org/2000/svg" xmlns:xlink="http://www.w3.org/1999/xlink">
    <!-- Generator: Sketch 57.1 (83088) - https://sketch.com -->
    <title>GoldFine Logo</title>
    <desc>Created with Sketch.</desc>
    <g id="Page-1" stroke="none" stroke-width="1" fill="none" fill-rule="evenodd" fill-opacity="0.6">
        <g id="Gold-Fine" transform="translate(-105.000000, -32.000000)" fill="#FFFFFF">
            <path d="M114.225215,37.865882 C115.450773,37.865882 116.569768,38.0819571 117.592771,38.5116697 C118.498872,38.8945651 119.357603,39.4620812 120.167869,40.2183757 L120.469445,40.5108432 L121.057186,41.1038745 L121.057186,38.3720306 L124.297387,38.3720306 L124.297387,53.8209649 C124.295654,57.039979 123.448524,59.5150052 121.778521,61.3064611 C120.105919,63.0975687 117.830848,63.9959954 114.859047,64 C112.63821,63.9991294 110.814514,63.4800965 109.349319,62.4552633 C108.08757,61.5713925 107.110343,60.3197162 106.415242,58.6746119 L106.270609,58.3160583 L109.81577,58.3160583 C110.296255,59.1328257 110.962316,59.7867967 111.79905,60.2584707 C112.696429,60.7696685 113.700718,61.026138 114.790777,61.0247451 C116.617245,61.0287497 118.104272,60.3756492 119.284259,59.2155297 C120.91337,57.6034109 121.021319,55.2412104 121.02669,54.4904321 C121.02669,54.3533321 120.983011,53.6011706 120.975731,53.4767624 L120.974708,53.4593308 L120.429592,54.0297273 C119.613651,54.8818397 118.69236,55.5206629 117.652723,55.9575141 C116.61274,56.3882714 115.472259,56.6090476 114.225215,56.6090476 C113.00936,56.6090476 111.860908,56.3995888 110.779513,55.9770149 C109.694652,55.5553115 108.740266,54.9549675 107.904225,54.1695406 C107.003899,53.3097671 106.293828,52.2798846 105.775569,51.08146 C105.255577,49.8790308 105,48.6651101 105,47.427684 C105.002772,44.6263687 105.868963,42.3658506 107.606022,40.5594209 C109.350706,38.7615229 111.528224,37.8698866 114.225215,37.865882 Z M227.488365,38.0172217 C229.051112,38.0172217 230.496554,38.3725877 231.849121,39.0847127 C233.205153,39.7963154 234.351006,40.7957281 235.308511,42.0963574 C235.883777,42.8680293 236.306389,43.7269322 236.582932,44.6859504 C236.858783,45.6470581 237,46.7599928 237,48.0339828 C237,48.1080855 236.996784,48.2200755 236.990973,48.3679913 L236.986138,48.4856337 L236.984405,48.5174965 L221.811777,48.5174965 C221.811777,48.5174965 221.539912,50.4593866 223.647082,52.5771315 C224.673203,53.4475259 226.001512,53.8737562 227.553516,53.8706222 C228.59939,53.871841 229.565906,53.6474084 230.419447,53.1929716 C231.106377,52.8306604 231.688163,52.3397199 232.148619,51.7329903 L232.315571,51.5000642 L236.092224,51.5000642 C235.329997,53.1983692 234.277538,54.5176287 232.926184,55.4884867 C231.408835,56.5791349 229.678533,57.1204544 227.667703,57.1227178 C226.319294,57.1227178 225.089057,56.8822668 223.968329,56.4083293 C222.844482,55.9352624 221.841579,55.234803 220.944373,54.2973748 C220.094297,53.4106138 219.436207,52.38491 218.966811,51.2155624 C218.495509,50.0453442 218.262631,48.8497054 218.262631,47.6222039 C218.262631,46.3518703 218.478529,45.1689418 218.909804,44.0568776 C219.337442,42.9467287 219.97058,41.9523654 220.811646,41.0615997 C221.732764,40.0785537 222.766509,39.3305613 223.921719,38.801778 C225.078488,38.2775216 226.258822,38.0172217 227.488365,38.0172217 Z M172.99793,32.3379114 L172.99793,56.4932272 L169.593121,56.4932272 L169.593121,54.4559228 L168.849261,55.0486058 C168.018244,55.7097155 167.149455,56.1965374 166.242892,56.5160361 C165.337368,56.8386687 164.3511,57.0000721 163.279754,57.0000721 C162.140139,57.0000721 161.075032,56.8200386 160.080619,56.4596232 C159.078756,56.1000784 158.189694,55.5793044 157.398877,54.8936446 C156.30362,53.9464661 155.472084,52.8349242 154.887462,51.543697 C154.303879,50.2563004 154.014167,48.8956018 154.014167,47.4403595 C154.014167,46.1010769 154.28274,44.8281317 154.821098,43.6002819 C155.362749,42.3703427 156.116832,41.3129502 157.099462,40.4112154 C157.917136,39.6336236 158.845531,39.0496462 159.897817,38.6437872 C160.952008,38.242281 162.074642,38.0368269 163.279754,38.0368269 C164.448826,38.0368269 165.473214,38.1909175 166.354479,38.4862143 C167.231413,38.7829041 168.05983,39.2523146 168.842503,39.8972317 L168.842503,39.8972317 L169.593121,40.5167283 L169.593121,32.3379114 L172.99793,32.3379114 Z M135.851959,37.8944889 C137.160515,37.8944889 138.355577,38.1138722 139.446329,38.5432366 C140.536735,38.9760832 141.539464,39.6229156 142.461622,40.4936582 C143.397641,41.4020094 144.121228,42.450348 144.634982,43.643375 C145.147869,44.8344868 145.402407,46.0450994 145.402407,47.2948875 C145.402407,48.6914535 145.175593,49.9527331 144.732708,51.0879544 C144.286704,52.2249169 143.619084,53.251143 142.720838,54.1749903 C141.822765,55.1111997 140.80912,55.8120073 139.669678,56.2855966 C138.527464,56.7631905 137.287351,56.9991145 135.93617,56.9991145 C134.573899,56.9991145 133.348688,56.7586635 132.246673,56.2814178 C131.139287,55.7998194 130.129973,55.0821227 129.206429,54.1105683 C128.333481,53.1656532 127.674178,52.1277614 127.228521,50.9914955 C126.779744,49.8599305 126.556916,48.6634212 126.556916,47.396744 C126.557782,46.1201424 126.787368,44.9163203 127.252779,43.7706521 C127.714378,42.6263769 128.384597,41.6165174 129.269154,40.7252294 C130.179183,39.8104361 131.195947,39.1134589 132.329151,38.6261147 C133.464261,38.1377257 134.631599,37.8953595 135.851959,37.8944889 Z M196.410597,38.6096957 L196.410597,56.6154898 L193.034031,56.6154898 L193.034031,38.6096957 L196.410597,38.6096957 Z M208.949029,38.2152412 C210.251347,38.2152412 211.357001,38.4602191 212.294233,38.9414694 C213.230426,39.421675 214.008594,40.1329294 214.643812,41.1074438 C215.043725,41.743307 215.333611,42.472147 215.513468,43.3047587 C215.676616,44.0673891 215.772534,45.2126975 215.785404,46.7093176 L215.786892,47.0609135 L215.786199,56.6154027 L212.32213,56.6154027 L212.322997,48.6965376 C212.315199,46.122963 212.050958,44.3369047 211.380219,43.2361579 C210.750181,42.2077457 209.647512,41.6699423 208.265331,41.6133605 L208.018555,41.6083689 L207.975756,41.6083689 C206.412143,41.5960069 205.15297,42.1968732 204.432502,43.3846769 C203.751266,44.5055109 203.443419,46.2164139 203.408334,48.5720138 L203.404994,48.9705926 L203.404994,56.6145322 L200.083875,56.6145322 L200.083875,38.6097828 L203.456976,38.6097828 L203.456976,41.6945552 L204.285566,40.5711736 C204.887863,39.754058 205.565013,39.1697325 206.319789,38.789294 C207.077857,38.4097262 207.946993,38.2152412 208.949029,38.2152412 Z M151.293144,32.3370756 L151.293144,56.4937843 L147.917444,56.4937843 L147.917444,32.3370756 L151.293144,32.3370756 Z M183.539567,32.00003 C183.774395,32.00003 184.03203,32.0087641 184.305747,32.0298053 L184.584575,32.0550811 L184.607447,32.0578669 L184.617844,32.0578669 C185.701945,32.1758356 186.977536,32.4972021 188.128166,33.2257408 L188.413037,33.4164761 C189.629065,34.2878165 191.049429,35.8948844 191.187376,39.0130517 L191.19701,39.3410429 L187.818538,39.2478921 C187.786829,37.7917792 187.378425,36.6391466 186.514834,35.9230169 C185.934873,35.446015 185.244876,35.2263967 184.638866,35.1207323 L184.440239,35.0895346 L184.408877,35.0850077 L184.334543,35.0850077 C183.29352,35.0895346 182.495599,35.2425806 181.924319,35.6722932 C181.394744,36.0816479 181.142291,36.729561 181.110129,37.487578 L181.106645,37.6793018 L181.106645,38.4884081 L184.181196,38.4884081 L184.181196,41.4878648 L181.035776,41.4878648 L181.035776,56.4928093 L177.716217,56.4928093 L177.716217,41.4878648 L175.471641,41.4878648 L175.471641,38.4884081 L177.577598,38.4884081 L177.577598,37.5072775 C177.581237,35.5857587 178.095857,34.2515254 179.065492,33.3771264 C179.735657,32.777961 180.667147,32.363352 181.886127,32.1628795 L182.196877,32.1172397 L182.223734,32.1137574 L182.248859,32.1073152 C182.390596,32.0700549 182.889448,31.99832 183.539567,32.00003 Z M135.973424,41.3159662 C134.296316,41.311122 132.860405,41.8846525 131.783168,43.0207444 C130.694669,44.1477824 130.154058,45.6321017 130.157678,47.3662741 C130.155098,49.2054371 130.667812,50.7379859 131.725469,51.8627604 C132.713898,52.9269433 134.06379,53.4891004 135.669401,53.5478027 L135.973424,53.5529091 L135.994043,53.5529091 C137.707017,53.5529091 139.150379,52.9729093 140.199546,51.8249777 C141.258416,50.6761755 141.776675,49.1249966 141.773587,47.2618059 C141.778407,45.5671573 141.221682,44.1082586 140.119667,42.9975873 C139.028222,41.8813444 137.610158,41.311122 135.973424,41.3159662 Z M163.589913,41.4588259 C161.969812,41.4538082 160.539792,42.0677331 159.401044,43.2503133 C158.256924,44.4273219 157.66693,45.8803008 157.670543,47.513139 C157.666064,49.2131852 158.25779,50.6870576 159.415772,51.8259354 C160.569249,52.9743893 162.064766,53.5569737 163.795241,53.552473 L163.795241,53.552473 L163.816727,53.552473 C165.358854,53.552473 166.718179,52.9529733 167.782247,51.8067828 C168.860003,50.6602441 169.408412,49.2196274 169.404277,47.5826104 C169.408412,45.8688093 168.849261,44.3813559 167.747419,43.2193211 C166.649043,42.0536299 165.224395,41.4538082 163.589913,41.4588259 Z M114.689586,41.1496577 C113.033618,41.1470547 111.58731,41.735559 110.42621,42.8885399 C109.255752,44.0369939 108.657268,45.4830081 108.661233,47.1518879 C108.657268,48.882404 109.248128,50.3743843 110.412348,51.5482588 C111.499278,52.6539013 112.854964,53.2512028 114.412955,53.3176478 L114.707433,53.3238798 L114.722854,53.3238798 C116.283695,53.3266561 117.686511,52.7153429 118.859568,51.5341556 C120.038689,50.357147 120.650169,48.940558 120.646546,47.3568198 C120.650169,45.658863 120.053417,44.1705391 118.886598,42.9707216 C117.728963,41.76777 116.302062,41.1470547 114.689586,41.1496577 Z M227.488365,41.1575293 C226.227806,41.1556211 225.067572,41.5473769 224.068827,42.316263 C223.143391,43.0210217 222.485922,43.9554374 222.119862,45.0744551 L222.034432,45.3580293 L221.871209,45.9433996 L233.354861,45.9433996 C233.354861,45.9433996 233.085422,43.9611151 231.116004,42.2346037 C230.137013,41.509246 228.909548,41.1564916 227.488365,41.1575293 Z M196.410597,32.4873358 L196.410597,35.7688566 L193.034031,35.7688566 L193.034031,32.4873358 L196.410597,32.4873358 Z" id="GoldFine-Logo"></path>
        </g>
    </g>
</svg>