<svg width="13" height="11" viewBox="0 0 13 11" fill="none" xmlns="http://www.w3.org/2000/svg">
<path fill-rule="evenodd" clip-rule="evenodd" d="M11.0381 1.95427C11.564 1.62242 11.9675 1.09621 12.1569 0.469362C11.6645 0.777406 11.1204 1.00018 10.5399 1.12079C10.0767 0.598418 9.41457 0.272705 8.68184 0.272705C7.2761 0.272705 6.13695 1.47492 6.13695 2.95753C6.13695 3.16801 6.15807 3.37312 6.20177 3.56901C4.08661 3.45685 2.21108 2.38907 0.954657 0.763579C0.73542 1.1615 0.610142 1.62242 0.610142 2.11406C0.610142 3.0451 1.05954 3.86707 1.74274 4.34949C1.32539 4.33566 0.932806 4.21352 0.589019 4.01379V4.04682C0.589019 5.34814 1.46597 6.43359 2.63207 6.67941C2.41793 6.7424 2.1936 6.7739 1.96052 6.7739C1.79664 6.7739 1.6364 6.75777 1.48199 6.72627C1.80538 7.79252 2.7457 8.56993 3.86009 8.59067C2.98824 9.31123 1.8906 9.73988 0.698274 9.73988C0.492876 9.73988 0.289663 9.72836 0.0908203 9.70301C1.2176 10.4643 2.55559 10.9091 3.99338 10.9091C8.67674 10.9091 11.2362 6.81769 11.2362 3.26942C11.2362 3.15265 11.2347 3.03665 11.2296 2.92219C11.7271 2.54348 12.1598 2.07027 12.4999 1.53177C12.0432 1.74533 11.5523 1.88975 11.0381 1.95427Z" fill="white"/>
</svg>
